<?xml version="1.0" standalone="no"?>
<!DOCTYPE svg PUBLIC "-//W3C//DTD SVG 20010904//EN"
 "http://www.w3.org/TR/2001/REC-SVG-20010904/DTD/svg10.dtd">
<svg version="1.0" xmlns="http://www.w3.org/2000/svg"
 width="1024.000000pt" height="1024.000000pt" viewBox="0 0 1024.000000 1024.000000"
 preserveAspectRatio="xMidYMid meet">
<metadata>
Created by potrace 1.14, written by Peter Selinger 2001-2017
</metadata>
<g transform="translate(0.000000,1024.000000) scale(0.100000,-0.100000)"
fill="#000000" stroke="none">
<path d="M4100 7678 c-225 -48 -337 -73 -398 -90 -40 -11 -85 -22 -99 -24 -14
-3 -33 -9 -42 -13 -9 -5 -18 -9 -21 -9 -3 -1 -12 -3 -20 -6 -20 -6 -162 -49
-175 -52 -26 -7 -260 -93 -310 -114 -11 -5 -72 -31 -135 -58 l-115 -50 -53
-78 c-53 -78 -183 -292 -249 -409 -125 -221 -400 -830 -418 -926 -2 -10 -7
-24 -10 -29 -3 -5 -8 -18 -10 -27 -2 -10 -12 -43 -23 -73 -17 -48 -57 -178
-67 -220 -2 -8 -13 -51 -25 -95 -11 -44 -22 -89 -25 -100 -43 -196 -70 -333
-80 -405 -3 -25 -8 -56 -10 -70 -2 -14 -7 -45 -10 -70 -4 -25 -8 -56 -10 -70
-2 -14 -6 -59 -10 -100 -4 -41 -8 -91 -11 -110 -27 -230 -20 -844 11 -1045 4
-27 30 -47 218 -172 379 -252 691 -415 1102 -576 145 -57 355 -127 377 -127
15 1 19 6 115 150 75 111 144 226 211 351 33 62 39 79 29 88 -8 6 -58 29 -113
52 -135 56 -382 180 -422 212 -15 11 6 35 79 90 l37 28 53 -25 c161 -75 592
-225 649 -226 3 0 28 -6 55 -14 28 -8 61 -17 75 -20 14 -3 59 -12 100 -20 118
-23 132 -26 175 -32 22 -2 69 -9 105 -14 234 -33 744 -35 950 -5 14 2 45 6 70
10 25 3 56 8 70 10 14 3 41 7 60 10 69 11 196 37 275 57 44 11 91 22 104 24
13 3 31 9 40 13 9 5 41 14 71 21 30 7 60 16 65 20 6 3 30 12 55 19 51 15 286
106 372 145 l56 25 61 -47 c34 -25 61 -51 61 -58 0 -21 -292 -171 -467 -239
-40 -15 -74 -34 -77 -41 -3 -7 10 -41 29 -75 19 -33 35 -63 35 -65 0 -2 28
-50 62 -106 95 -160 218 -338 233 -338 8 0 67 18 132 40 65 22 125 42 133 44
29 7 324 127 414 168 125 57 352 174 461 238 50 29 106 61 125 72 66 38 375
246 407 275 29 26 32 33 37 118 25 365 26 624 1 975 -5 81 -21 220 -35 315 -5
33 -12 78 -15 100 -8 52 -14 84 -20 115 -3 14 -7 39 -10 55 -11 65 -18 96 -56
255 -82 338 -186 643 -336 980 -41 91 -200 405 -227 449 -14 22 -26 43 -26 46
0 8 -132 224 -212 348 -80 122 -59 108 -323 215 -137 55 -479 174 -536 186
-13 3 -58 14 -99 26 -74 20 -307 74 -365 84 -16 3 -52 10 -80 15 -64 13 -64
13 -163 -191 l-77 -160 -55 7 c-30 4 -61 8 -70 10 -8 1 -51 6 -94 10 -43 4
-87 8 -96 10 -39 7 -294 18 -445 18 -218 1 -527 -18 -635 -38 -8 -2 -42 -6
-75 -9 l-60 -7 -72 148 c-112 229 -103 219 -183 201z m-12 -2143 c224 -25 431
-225 497 -480 19 -72 25 -255 11 -325 -41 -210 -165 -384 -338 -476 -306 -161
-676 0 -807 351 -90 240 -49 522 104 709 69 86 113 122 200 166 84 43 99 47
180 57 28 3 52 7 54 9 2 2 13 2 25 -1 12 -2 45 -7 74 -10z m2318 -20 c98 -33
167 -76 240 -149 150 -152 217 -362 190 -601 -28 -246 -204 -473 -424 -546
-69 -23 -213 -32 -277 -17 -122 28 -224 86 -312 177 -64 67 -152 232 -167 316
-3 17 -8 41 -11 55 -8 32 -8 197 -1 230 30 140 63 220 130 313 100 140 238
224 401 245 88 11 148 5 231 -23z"/>
</g>
</svg>
